HIERARCHY
ROOT Hips
{
	OFFSET 0.087744 88.214287 -0.198783
	CHANNELS 6 Xposition Yposition Zposition Xrotation Yrotation Zrotation
	JOINT Spine
	{
		OFFSET -0.573624 8.254128 4.376324
		CHANNELS 3 Xrotation Yrotation Zrotation
		JOINT Spine1
		{
			OFFSET -0.318996 15.463211 5.000741
			CHANNELS 3 Xrotation Yrotation Zrotation
			JOINT Spine2
			{
				OFFSET 0.003246 13.337120 3.135084
				CHANNELS 3 Xrotation Yrotation Zrotation
				JOINT Neck
				{
					OFFSET 0.717286 14.521477 0.392950
					CHANNELS 3 Xrotation Yrotation Zrotation
					JOINT Neck1
					{
						OFFSET -0.313302 3.824738 2.228864
						CHANNELS 3 Xrotation Yrotation Zrotation
						JOINT Head
						{
							OFFSET -0.290335 3.549057 2.066583
							CHANNELS 3 Xrotation Yrotation Zrotation
							JOINT HeadTop_End
							{
								OFFSET -0.478888 20.621292 6.895185
								CHANNELS 3 Xrotation Yrotation Zrotation
								End Site
								{
									OFFSET -0.070168 3.021484 1.010307
								}
							}
							JOINT L_Eye
							{
								OFFSET 0.892079 4.231140 10.313156
								CHANNELS 3 Xrotation Yrotation Zrotation
								End Site
								{
									OFFSET -0.070168 3.021484 1.010307
								}
							}
							JOINT R_Eye
							{
								OFFSET -4.949604 4.557037 8.932766
								CHANNELS 3 Xrotation Yrotation Zrotation
								End Site
								{
									OFFSET -0.070168 3.021484 1.010307
								}
							}
							JOINT Jaw
							{
								OFFSET -0.621696 1.155899 2.903860
								CHANNELS 3 Xrotation Yrotation Zrotation
								End Site
								{
									OFFSET -0.070168 3.021484 1.010307
								}
							}
						}
					}
				}
				JOINT L_Shoulder
				{
					OFFSET 6.637492 10.513618 1.150069
					CHANNELS 3 Xrotation Yrotation Zrotation
					JOINT L_Arm
					{
						OFFSET 12.417124 -1.161545 0.825585
						CHANNELS 3 Xrotation Yrotation Zrotation
						JOINT L_ForeArm
						{
							OFFSET 26.905319 -1.500992 6.357735
							CHANNELS 3 Xrotation Yrotation Zrotation
							JOINT L_Hand
							{
								OFFSET 27.086826 -1.511124 6.400627
								CHANNELS 3 Xrotation Yrotation Zrotation
								JOINT L_HandThumb1
								{
									OFFSET 1.821404 -2.203629 2.314926
									CHANNELS 3 Xrotation Yrotation Zrotation
									JOINT L_HandThumb2
									{
										OFFSET 2.968040 -2.735756 2.020512
										CHANNELS 3 Xrotation Yrotation Zrotation
										JOINT L_HandThumb3
										{
											OFFSET 3.405090 -3.138657 2.318012
											CHANNELS 3 Xrotation Yrotation Zrotation
											JOINT L_HandThumb4
											{
												OFFSET 1.779030 -1.639793 1.211060
												CHANNELS 3 Xrotation Yrotation Zrotation
												End Site
												{
													OFFSET 1.489952 -1.718178 1.465759
												}
											}
										}
									}
								}
								JOINT L_HandIndex1
								{
									OFFSET 9.690971 -1.498657 4.425238
									CHANNELS 3 Xrotation Yrotation Zrotation
									JOINT L_HandIndex2
									{
										OFFSET 5.392624 -0.300842 1.274275
										CHANNELS 3 Xrotation Yrotation Zrotation
										JOINT L_HandIndex3
										{
											OFFSET 3.295372 -0.183853 0.778698
											CHANNELS 3 Xrotation Yrotation Zrotation
											JOINT L_HandIndex4
											{
												OFFSET 2.268425 -0.126587 0.536030
												CHANNELS 3 Xrotation Yrotation Zrotation
												End Site
												{
													OFFSET 2.268410 -0.126587 0.536121
												}
											}
										}
									}
								}
								JOINT L_HandMiddle1
								{
									OFFSET 10.194588 -0.568787 2.408966
									CHANNELS 3 Xrotation Yrotation Zrotation
									JOINT L_HandMiddle2
									{
										OFFSET 5.628563 -0.314011 1.330030
										CHANNELS 3 Xrotation Yrotation Zrotation
										JOINT L_HandMiddle3
										{
											OFFSET 3.608368 -0.201294 0.852663
											CHANNELS 3 Xrotation Yrotation Zrotation
											JOINT L_HandMiddle4
											{
												OFFSET 2.674347 -0.149216 0.631966
												CHANNELS 3 Xrotation Yrotation Zrotation
												End Site
												{
													OFFSET 2.675201 -0.148026 0.628643
												}
											}
										}
									}
								}
								JOINT L_HandRing1
								{
									OFFSET 10.496277 0.125809 0.207506
									CHANNELS 3 Xrotation Yrotation Zrotation
									JOINT L_HandRing2
									{
										OFFSET 5.291298 -0.295471 1.250977
										CHANNELS 3 Xrotation Yrotation Zrotation
										JOINT L_HandRing3
										{
											OFFSET 3.608521 -0.201050 0.852049
											CHANNELS 3 Xrotation Yrotation Zrotation
											JOINT L_HandRing4
											{
												OFFSET 2.216339 -0.123642 0.523668
												CHANNELS 3 Xrotation Yrotation Zrotation
												End Site
												{
													OFFSET 2.215500 -0.124802 0.526922
												}
											}
										}
									}
								}
								JOINT L_HandPinky1
								{
									OFFSET 10.585579 0.652328 -1.877342
									CHANNELS 3 Xrotation Yrotation Zrotation
									JOINT L_HandPinky2
									{
										OFFSET 3.572510 -0.199295 0.844189
										CHANNELS 3 Xrotation Yrotation Zrotation
										JOINT L_HandPinky3
										{
											OFFSET 2.731918 -0.152435 0.645548
											CHANNELS 3 Xrotation Yrotation Zrotation
											JOINT L_HandPinky4
											{
												OFFSET 1.612701 -0.089951 0.381084
												CHANNELS 3 Xrotation Yrotation Zrotation
												End Site
												{
													OFFSET 1.613144 -0.089371 0.379347
												}
											}
										}
									}
								}
							}
						}
					}
				}
				JOINT R_Shoulder
				{
					OFFSET -5.300089 11.179619 -1.670775
					CHANNELS 3 Xrotation Yrotation Zrotation
					JOINT R_Arm
					{
						OFFSET -11.529359 0.174408 -4.832968
						CHANNELS 3 Xrotation Yrotation Zrotation
						JOINT R_ForeArm
						{
							OFFSET -26.905312 1.501068 -6.357718
							CHANNELS 3 Xrotation Yrotation Zrotation
							JOINT R_Hand
							{
								OFFSET -27.086834 1.511154 -6.400623
								CHANNELS 3 Xrotation Yrotation Zrotation
								JOINT R_HandPinky1
								{
									OFFSET -8.481377 1.699966 -6.344730
									CHANNELS 3 Xrotation Yrotation Zrotation
									JOINT R_HandPinky2
									{
										OFFSET -3.549675 0.198029 -0.838790
										CHANNELS 3 Xrotation Yrotation Zrotation
										JOINT R_HandPinky3
										{
											OFFSET -2.703461 0.150833 -0.638824
											CHANNELS 3 Xrotation Yrotation Zrotation
											JOINT R_HandPinky4
											{
												OFFSET -1.566620 0.087570 -0.370127
												CHANNELS 3 Xrotation Yrotation Zrotation
												End Site
												{
													OFFSET -1.564934 0.089935 -0.376618
												}
											}
										}
									}
								}
								JOINT R_HandRing1
								{
									OFFSET -9.548805 1.398956 -4.515296
									CHANNELS 3 Xrotation Yrotation Zrotation
									JOINT R_HandRing2
									{
										OFFSET -5.248810 0.292831 -1.240295
										CHANNELS 3 Xrotation Yrotation Zrotation
										JOINT R_HandRing3
										{
											OFFSET -3.295845 0.183868 -0.778810
											CHANNELS 3 Xrotation Yrotation Zrotation
											JOINT R_HandRing4
											{
												OFFSET -2.286743 0.127869 -0.540293
												CHANNELS 3 Xrotation Yrotation Zrotation
												End Site
												{
													OFFSET -2.287079 0.127396 -0.538983
												}
											}
										}
									}
								}
								JOINT R_HandMiddle1
								{
									OFFSET -10.474907 0.584396 -2.475215
									CHANNELS 3 Xrotation Yrotation Zrotation
									JOINT R_HandMiddle2
									{
										OFFSET -5.458221 0.304520 -1.289775
										CHANNELS 3 Xrotation Yrotation Zrotation
										JOINT R_HandMiddle3
										{
											OFFSET -3.630898 0.202576 -0.857977
											CHANNELS 3 Xrotation Yrotation Zrotation
											JOINT R_HandMiddle4
											{
												OFFSET -2.615540 0.146240 -0.617976
												CHANNELS 3 Xrotation Yrotation Zrotation
												End Site
												{
													OFFSET -2.617691 0.143250 -0.609516
												}
											}
										}
									}
								}
								JOINT R_HandIndex1
								{
									OFFSET -10.812164 -0.309097 -0.379652
									CHANNELS 3 Xrotation Yrotation Zrotation
									JOINT R_HandIndex2
									{
										OFFSET -5.224983 0.291504 -1.234665
										CHANNELS 3 Xrotation Yrotation Zrotation
										JOINT R_HandIndex3
										{
											OFFSET -3.289925 0.183563 -0.777405
											CHANNELS 3 Xrotation Yrotation Zrotation
											JOINT R_HandIndex4
											{
												OFFSET -2.296844 0.128418 -0.542606
												CHANNELS 3 Xrotation Yrotation Zrotation
												End Site
												{
													OFFSET -2.295303 0.130524 -0.548598
												}
											}
										}
									}
								}
								JOINT R_HandThumb1
								{
									OFFSET -3.015244 -1.767395 1.148986
									CHANNELS 3 Xrotation Yrotation Zrotation
									JOINT R_HandThumb2
									{
										OFFSET -3.851944 -2.371643 0.417336
										CHANNELS 3 Xrotation Yrotation Zrotation
										JOINT R_HandThumb3
										{
											OFFSET -4.318794 -2.659073 0.467893
											CHANNELS 3 Xrotation Yrotation Zrotation
											JOINT R_HandThumb4
											{
												OFFSET -2.250092 -1.385025 0.243846
												CHANNELS 3 Xrotation Yrotation Zrotation
												End Site
												{
													OFFSET -2.116631 -1.486359 0.592692
												}
											}
										}
									}
								}
							}
						}
					}
				}
			}
		}
	}
	JOINT L_UpLeg
	{
		OFFSET 9.433882 -3.625908 1.174430
		CHANNELS 3 Xrotation Yrotation Zrotation
		JOINT L_Leg
		{
			OFFSET 1.043419 -39.423241 -13.751487
			CHANNELS 3 Xrotation Yrotation Zrotation
			JOINT L_Foot
			{
				OFFSET 1.343018 -36.485020 -14.269221
				CHANNELS 3 Xrotation Yrotation Zrotation
				JOINT L_ToeBase
				{
					OFFSET -1.853707 -14.135328 3.709745
					CHANNELS 3 Xrotation Yrotation Zrotation
					JOINT L_Toe_End
					{
						OFFSET -1.653399 -2.190421 6.067972
						CHANNELS 3 Xrotation Yrotation Zrotation
						End Site
						{
							OFFSET -1.653398 -2.190422 6.067972
						}
					}
				}
			}
		}
	}
	JOINT R_UpLeg
	{
		OFFSET -9.289741 -2.581306 -3.249951
		CHANNELS 3 Xrotation Yrotation Zrotation
		JOINT R_Leg
		{
			OFFSET 1.043894 -39.422600 -13.753361
			CHANNELS 3 Xrotation Yrotation Zrotation
			JOINT R_Foot
			{
				OFFSET 1.342566 -36.485729 -14.267485
				CHANNELS 3 Xrotation Yrotation Zrotation
				JOINT R_ToeBase
				{
					OFFSET -1.853822 -14.135473 3.710173
					CHANNELS 3 Xrotation Yrotation Zrotation
					JOINT R_Toe_End
					{
						OFFSET -1.472407 -2.204803 6.123297
						CHANNELS 3 Xrotation Yrotation Zrotation
						End Site
						{
							OFFSET -1.472407 -2.204803 6.123297
						}
					}
				}
			}
		}
	}
}
MOTION
Frames: 4
Frame Time: 0.041667
0.206325 88.023895 -0.440980 -0.237673 0.123989 1.570242 5.784797 7.258080 2.190221 3.830443 2.710743 1.503514 3.802866 2.657251 1.651905 -5.463593 0.421119 -1.425698 -0.000000 0.000000 0.000000 -15.296378 1.868953 -3.847989 0.000001 0.000002 0.000001 0.000000 0.000001 0.000000 0.000001 0.000001 0.000000 0.000002 0.000001 0.000000 3.478022 -9.765604 -13.505500 66.565985 -6.836034 -43.537190 -4.588602 -39.338809 -15.451213 -31.341925 4.924336 -7.143001 -2.215949 -0.474000 5.970165 7.925686 19.471534 14.570812 -11.278278 10.758294 14.763532 0.000001 0.000003 0.000004 32.189305 12.673138 -81.815223 23.016896 14.546020 -56.731452 17.860251 13.742850 -45.922562 0.000004 -0.000003 0.000002 33.074791 14.554233 -83.383291 23.109943 14.551665 -56.924770 17.841036 13.737971 -45.881874 -0.000003 0.000002 0.000001 33.304453 14.654338 -83.028545 23.622470 14.565409 -58.006877 17.357326 13.621171 -44.853501 -0.000003 0.000000 -0.000002 47.940343 20.244631 -103.317792 23.708625 14.580967 -58.167148 17.880752 13.747991 -45.966319 0.000005 0.000005 -0.000005 -1.038995 20.868564 11.301431 -37.056624 -12.267864 59.472417 -37.617069 66.028559 52.664771 -22.987400 27.600069 -2.192205 16.758600 -49.354926 91.104185 -1.542695 -26.608716 55.168404 -3.457527 -21.379863 43.520999 0.000001 -0.000000 -0.000001 9.725840 -38.697745 85.277473 -1.575058 -26.544501 55.015333 -3.572525 -20.883039 42.481362 0.000003 -0.000000 0.000002 2.798012 -37.000156 78.602220 -1.794255 -26.095730 53.954570 -3.466937 -21.341814 43.442018 -0.000003 -0.000000 -0.000000 3.458271 -34.741699 78.150191 -1.832254 -26.015516 53.766368 -3.461580 -21.361073 43.479970 -0.000001 0.000001 -0.000001 -0.000495 6.432559 -5.907936 13.373913 -22.412602 -8.643138 -5.143441 -8.560413 -16.157164 -0.000007 -0.000004 -0.000005 -72.745743 13.149902 5.364924 112.677528 23.516042 20.842951 31.564029 0.916208 11.672880 -0.767530 0.044033 -0.181088 0.000002 0.000002 0.000000 -8.870826 -7.457462 -2.678572 24.086350 4.215219 8.629719 -18.717350 12.895440 -6.108657 -16.843832 1.511254 -3.795340 0.000002 0.000003 0.000001 
0.419692 86.925217 -1.951731 -1.671087 2.432954 10.794725 8.289612 13.049384 -4.607685 4.306690 4.207450 0.604360 4.272976 4.152364 0.909380 -1.865843 -0.819602 -2.972207 -0.000002 0.000002 0.000000 -13.339896 -10.724356 -4.474103 0.000001 0.000001 0.000000 0.000002 0.000002 0.000000 0.000001 0.000000 -0.000000 0.000002 0.000000 -0.000000 1.758915 -16.073554 -5.325190 79.920344 -0.008773 -40.272967 -14.820520 -57.057051 -29.571461 -37.679681 9.519556 -7.672398 -2.215945 -0.473993 5.970181 7.925679 19.471522 14.570803 -11.278282 10.758298 14.763543 0.000002 0.000004 0.000006 32.189309 12.673151 -81.815223 23.016904 14.546028 -56.731452 17.860243 13.742849 -45.922558 0.000003 -0.000000 -0.000001 33.074788 14.554235 -83.383298 23.109938 14.551658 -56.924774 17.841040 13.737974 -45.881881 -0.000000 0.000001 0.000001 33.304453 14.654338 -83.028545 23.622472 14.565423 -58.006877 17.357322 13.621175 -44.853501 0.000001 -0.000001 -0.000005 47.940336 20.244629 -103.317792 23.708627 14.580972 -58.167141 17.880754 13.747987 -45.966316 -0.000001 0.000002 -0.000001 1.621672 20.929142 1.377760 -47.619611 -7.404073 59.210241 -91.636714 68.922831 109.935870 -29.186433 45.651560 1.334360 16.758591 -49.354916 91.104171 -1.542689 -26.608718 55.168425 -3.457536 -21.379863 43.520999 -0.000001 -0.000000 -0.000003 9.725840 -38.697738 85.277480 -1.575062 -26.544501 55.015333 -3.572524 -20.883037 42.481366 -0.000001 -0.000000 0.000001 2.798011 -37.000159 78.602213 -1.794252 -26.095730 53.954577 -3.466940 -21.341821 43.442025 0.000002 0.000001 -0.000002 3.458274 -34.741703 78.150198 -1.832255 -26.015518 53.766354 -3.461576 -21.361067 43.479967 0.000000 -0.000003 -0.000001 -0.000500 6.432556 -5.907930 13.373921 -22.412605 -8.643131 -5.143442 -8.560414 -16.157171 -0.000000 0.000000 -0.000000 -80.372011 20.764511 -8.027054 90.776991 19.812354 21.600164 20.336627 3.674243 6.526784 4.706328 -0.216521 1.121071 0.000002 0.000002 0.000000 10.848470 -13.139430 -10.127118 6.844845 0.632917 2.918377 0.978547 11.106840 2.488819 -27.327087 2.993788 -5.885151 0.000002 0.000001 0.000000 
-0.324731 87.350822 -3.078349 -1.905716 8.163741 15.217627 9.869540 15.068833 -8.009529 4.449813 4.526258 0.137895 4.390504 4.539078 0.436030 1.264257 -2.523573 -2.136749 0.000001 -0.000001 -0.000001 -14.975659 -18.519732 -4.455380 -0.000003 0.000001 -0.000001 -0.000001 0.000001 -0.000000 -0.000002 0.000000 -0.000001 -0.000001 0.000001 -0.000001 1.403070 -19.630479 -3.679783 74.053307 8.222038 -40.364997 -19.456065 -61.027856 -35.097993 -44.373950 4.047130 -5.655749 -2.215942 -0.473999 5.970168 7.925679 19.471536 14.570810 -11.278291 10.758290 14.763543 -0.000002 0.000003 0.000007 32.189309 12.673143 -81.815223 23.016901 14.546023 -56.731445 17.860255 13.742856 -45.922558 0.000001 -0.000001 -0.000003 33.074785 14.554233 -83.383298 23.109948 14.551658 -56.924770 17.841035 13.737977 -45.881874 -0.000000 -0.000000 0.000001 33.304453 14.654340 -83.028545 23.622465 14.565416 -58.006877 17.357326 13.621176 -44.853497 -0.000000 0.000002 -0.000001 47.940326 20.244626 -103.317772 23.708625 14.580967 -58.167141 17.880757 13.747985 -45.966319 0.000002 0.000005 -0.000004 0.705729 16.334821 0.120722 -44.491238 -4.417103 52.944386 -123.921119 56.632554 145.315881 -15.700558 49.910310 -7.548267 16.758590 -49.354909 91.104157 -1.542693 -26.608721 55.168418 -3.457536 -21.379863 43.521006 0.000000 0.000002 -0.000000 9.725838 -38.697741 85.277473 -1.575058 -26.544504 55.015336 -3.572529 -20.883040 42.481359 -0.000005 -0.000001 0.000002 2.798013 -37.000152 78.602206 -1.794256 -26.095730 53.954567 -3.466936 -21.341821 43.442021 0.000002 -0.000001 -0.000000 3.458277 -34.741699 78.150198 -1.832254 -26.015513 53.766358 -3.461574 -21.361073 43.479970 -0.000004 0.000001 -0.000001 -0.000499 6.432550 -5.907933 13.373917 -22.412598 -8.643126 -5.143442 -8.560412 -16.157168 -0.000000 0.000002 -0.000003 -73.696853 22.953600 -19.361076 58.251084 13.047749 17.326110 12.095565 2.233335 2.704573 6.572913 -0.276743 1.569756 0.000002 0.000004 0.000002 20.301720 -13.014744 -6.167262 4.722129 -4.544426 -0.577774 30.229680 3.140503 6.818837 -10.891634 0.849198 -2.504206 0.000002 0.000004 -0.000001 
-1.318060 89.654144 -2.024577 -1.894511 13.754532 9.622736 8.016930 10.837522 -3.895364 3.811380 3.319481 -0.080151 3.775522 3.352486 0.043570 1.200579 -2.654433 -0.662897 -0.000002 -0.000000 0.000001 -15.525076 -16.935054 -1.605313 -0.000004 0.000001 0.000001 -0.000003 0.000002 0.000000 -0.000004 0.000001 -0.000000 -0.000003 0.000000 -0.000000 2.552888 -13.463766 -10.299994 55.836677 11.738551 -42.350451 -10.699805 -52.075213 -24.362667 -46.905303 -7.650890 -0.830917 -2.215946 -0.473993 5.970182 7.925682 19.471532 14.570807 -11.278291 10.758296 14.763544 0.000004 0.000002 0.000008 32.189312 12.673142 -81.815216 23.016904 14.546027 -56.731449 17.860250 13.742853 -45.922558 0.000000 0.000001 -0.000000 33.074781 14.554230 -83.383298 23.109938 14.551660 -56.924760 17.841033 13.737975 -45.881867 -0.000002 0.000001 0.000000 33.304453 14.654338 -83.028538 23.622467 14.565419 -58.006877 17.357324 13.621175 -44.853504 0.000005 0.000003 -0.000007 47.940333 20.244636 -103.317792 23.708630 14.580975 -58.167141 17.880756 13.747989 -45.966316 0.000000 0.000002 -0.000001 1.524256 18.607735 1.764966 -23.411916 -10.834048 55.341809 -123.897200 56.652502 145.287918 -1.798354 46.826073 -17.975268 16.758602 -49.354909 91.104191 -1.542693 -26.608716 55.168415 -3.457527 -21.379862 43.520999 0.000002 -0.000003 -0.000003 9.725835 -38.697734 85.277480 -1.575057 -26.544504 55.015330 -3.572529 -20.883034 42.481355 -0.000004 -0.000009 0.000013 2.798004 -37.000152 78.602213 -1.794251 -26.095730 53.954567 -3.466932 -21.341807 43.442018 -0.000002 0.000001 -0.000001 3.458276 -34.741696 78.150198 -1.832269 -26.015516 53.766354 -3.461578 -21.361070 43.479970 -0.000004 0.000003 0.000002 -0.000499 6.432561 -5.907932 13.373920 -22.412600 -8.643128 -5.143446 -8.560413 -16.157173 -0.000001 -0.000003 0.000004 -55.861829 19.135810 -17.141854 27.989502 9.660034 10.560135 12.035232 -1.562366 -0.625169 1.572115 -0.082587 0.372580 -0.000000 0.000006 -0.000000 14.933596 -11.499856 3.281831 32.028512 -2.145821 6.575406 39.896238 2.492340 15.468048 1.168773 -0.062369 0.276767 -0.000000 0.000003 0.000001 
